# xmcd
#
# Track frame offsets: 
#        150
#        16729
#        36000
#        55492
#        70253
#        91277
#        111496
#        122996
#        139865
#        150321
#        164581
#        186415
#        202176
#        216661
#        231365
#        244858
#        258754
#        278028
#        287948
#        301906
#
# Disc length: 4237 seconds
#
# Revision: 0
# Processed by: cddbd v1.5.2PL0 Copyright (c) Steve Scherf et al.
# Submitted via: ExactAudioCopy v1.0b1
#
DISCID=35108b14
DTITLE=The Manhattans - There's No Me Without You and That's How Much I 
DTITLE=Love You
DYEAR=1974
DGENRE=Soul
TTITLE0=There's No Me Without You
TTITLE1=We Made It
TTITLE2=Wish That You Were Mine
TTITLE3=I'm Not A Run Around
TTITLE4=Soul Train
TTITLE5=You'd Better Believe It
TTITLE6=It's So Hard Loving You
TTITLE7=The Day The Robin Sang To Me
TTITLE8=Falling Apart At The Seams
TTITLE9=The Other Side Of Me
TTITLE10=Summertime In The City
TTITLE11=Don't Take Your Love
TTITLE12=Save Our Goodbyes
TTITLE13=I Don't Want To Pay The Price Of Losing You
TTITLE14=That's How Much I Love You
TTITLE15=Blackbird
TTITLE16=A Change Is Gonna Come
TTITLE17=Strange Old World
TTITLE18=Fever
TTITLE19=Nursery Rhymes
EXTD=
EXTT0=
EXTT1=
EXTT2=
EXTT3=
EXTT4=
EXTT5=
EXTT6=
EXTT7=
EXTT8=
EXTT9=
EXTT10=
EXTT11=
EXTT12=
EXTT13=
EXTT14=
EXTT15=
EXTT16=
EXTT17=
EXTT18=
EXTT19=
PLAYORDER=
